<?xml version="1.0" encoding="UTF-8"?>
<svg id="Layer_1" data-name="Layer 1" xmlns="http://www.w3.org/2000/svg" version="1.1" viewBox="0 0 222.6 283.5">
  <defs>
    <style>
      .cls-1 {
        isolation: isolate;
      }

      .cls-2 {
        fill: #ea0f24;
      }

      .cls-2, .cls-3 {
        stroke-width: 0px;
      }

      .cls-3 {
        fill: #fff;
      }
    </style>
  </defs>
  <path class="cls-3" d="M149.2,235h-75c-2.6,0-4.8-2.1-4.8-4.8s2.1-4.8,4.8-4.8h75c2.6,0,4.8,2.1,4.8,4.8-.1,2.6-2.2,4.8-4.8,4.8ZM144.1,252.2h-64.6c-2.6,0-4.8-2.1-4.8-4.8s2.1-4.8,4.8-4.8h64.6c2.6,0,4.8,2.1,4.8,4.8s-2.1,4.8-4.8,4.8ZM128,269.4h-32.6c-2.6,0-4.8-2.1-4.8-4.8s2.1-4.8,4.8-4.8h32.6c2.6,0,4.8,2.1,4.8,4.8-.1,2.7-2.2,4.8-4.8,4.8Z"/>
  <path class="cls-3" d="M204.2,95.6c-2.5-17.7-9.4-33.6-20.7-47.4-16-19.4-36.4-30.7-61.4-33.7-3.3-.4-6.6-.5-9.8-.5h-3.4c-2.3.1-4.6.2-6.8.5-25,3-45.5,14.3-61.4,33.7-11.6,13.8-18.4,29.7-20.9,47.4-2.4,16.9-.5,33.2,5.8,49,5.1,12.8,12.6,23.9,22.4,33.5,3.5,3.4,7.1,6.8,9.8,10.9,4.5,6.8,7.1,14.1,7.8,22,.3,2.4,2.3,4.3,4.7,4.3h.2c.3,0,.5,0,.8-.1.2-.1.5-.1.7-.2s.5-.2.7-.3.4-.3.6-.4c.2-.2.4-.3.5-.5.2-.2.3-.4.4-.6s.3-.4.4-.7c0-.2.2-.5.2-.7v-6.5c0-.3,0-.6-.2-.9s0-.6-.2-.9,0-.6-.2-.9,0-.6-.2-.9,0-.6-.2-.9,0-.6-.2-.9-.2-.6-.2-.9l-.3-.9c0-.3-.2-.6-.3-.8,0-.3-.2-.6-.3-.8,0-.3-.2-.6-.3-.8,0-.3-.2-.6-.3-.8,0-.3-.2-.5-.3-.8s-.2-.5-.3-.8-.2-.5-.3-.8-.2-.5-.4-.8c0-.3-.2-.5-.4-.8,0-.3-.3-.5-.4-.8s-.3-.5-.4-.8-.3-.5-.4-.8-.3-.5-.4-.8-.3-.5-.4-.8-.3-.5-.5-.8-.3-.5-.5-.8-.3-.5-.5-.8-.3-.5-.5-.8c-.2-.2-.3-.5-.5-.7s-.3-.5-.5-.7-.4-.5-.5-.7c-.2-.2-.4-.5-.6-.7s-.4-.5-.6-.7-.4-.5-.6-.7-.4-.5-.6-.7-.4-.5-.6-.7-.4-.5-.6-.7c-4.3-4.8-9.3-8.9-13.4-13.9-12.8-15.8-18.7-33.9-19.2-54-.2-9.5,1.5-18.8,4.4-27.8,5.3-16.2,15-29.4,28.2-39.9,12.8-10.2,27.4-16.2,43.8-17.6,2.3-.2,4.6-.3,6.8-.3s5.1.1,7.7.3c16.5,1.4,31,7.4,43.8,17.6,13.2,10.5,22.9,23.7,28.2,39.9,2.9,9,4.7,18.3,4.4,27.8-.5,20.1-6.4,38.2-19.2,54-4.1,5-9.1,9.2-13.4,13.9-.2.2-.4.5-.6.7s-.4.5-.6.7-.4.5-.6.7-.4.5-.6.7-.4.5-.6.7-.4.5-.6.7-.4.5-.5.7c-.2.2-.4.5-.5.7-.2.2-.3.5-.5.7s-.3.5-.5.7c-.2.3-.3.5-.5.8s-.3.5-.5.8-.3.5-.5.8c-.1.3-.3.5-.4.8s-.3.5-.4.8-.3.5-.4.8-.3.5-.4.8-.3.5-.4.8-.3.5-.4.8-.2.5-.4.8c-.1.3-.2.5-.3.8s-.2.5-.3.8-.2.5-.3.8-.2.6-.3.8c-.1.3-.2.6-.3.8-.1.3-.2.6-.3.8-.1.3-.2.6-.3.8l-.3.9c-.1.3-.2.6-.2.9-.1.3-.2.6-.2.9-.1.3-.1.6-.2.9s-.1.6-.2.9-.1.6-.2.9-.1.6-.2.9-.1.6-.2.9c0,.3-.1.6-.1.9s-.1.6-.1.9-.1.6-.1.9-.1.6-.1.9-.1.6-.1.9-.1.6-.1.9v.6c0,.2.1.3.1.5.1.2.1.5.2.7s.2.4.4.7c.1.2.3.4.4.6.2.2.3.4.5.5.2.2.4.3.6.4s.4.2.7.3c.2.1.5.2.7.2.3.1.5.1.8.1h.2c2.5,0,4.5-1.9,4.7-4.3.7-7.9,3.3-15.2,7.8-22,2.7-4.1,6.3-7.5,9.8-10.9,9.9-9.6,17.4-20.7,22.4-33.5,6.9-15.7,8.8-32,6.5-48.9h-.5Z"/>
  <g class="cls-1">
    <g class="cls-1">
      <path class="cls-2" d="M91,116.1c.9.5,1.5.9,1.8,1.1.5.4,1.2,3.8,2,10l1.4,11.3c3,20,6.4,38.6,10,55.7,1.8,8.4,3.4,15,4.8,19.6,1,3.4,1.1,5.5.3,6.5-1.4,1.7-2.8,1.9-4.5.6-3.4-2.7-9.1-31-17.2-84.9-.6-3.8-1-8.7-1.3-14.7-4,7.5-7.3,17.4-10,29.8-.2,1.1-.5,1.8-.8,2.2-.9,1.2-2.3,1-4-.4-1.9-1.5-1.2-7.1,2.2-16.7,2.3-6.7,4.8-12.7,7.4-17.9,3.2-6.4,6.8-12,10.7-16.9,4.5-5.5,8.8-8.7,13-9.6,4.6-1,9.7.7,15,5,5,4,7.3,11.4,6.8,22.2-.5,12.5-5.8,25.3-15.7,38.5,2.5.7,7.9,3,16.3,6.9,7.6,3.5,12,5.3,13.2,5.3,1.2,0,2.7-1,4.2-2.9.3-.4.7-.6,1.1-.5.7.6.6,1.9,0,3.9-.6,1.7-1.3,3-2,3.9-.9,1.2-2.2,2-3.9,2.5-1.7.5-4,0-6.9-1.5l-11.1-5.6c-4.3-2.1-8.1-3.7-11.4-4.9-1.3-.4-3.1-.8-5.4-1.2-2.3.3-3.6.3-3.9,0-.9-.7-.1-2.5,2.3-5.4.9-1.1,2-1.6,3.4-1.6,4-4.9,7.4-12.1,10.2-21.5,2.9-9.4,3.9-17.2,3.3-23.4-.8-7.5-2.7-12.4-5.6-14.7-4.8-3.8-10.5-1.7-17.1,6.5-2.6,3.2-5.4,7.5-8.3,12.7Z"/>
    </g>
  </g>
</svg>