<?xml version="1.0" encoding="UTF-8"?>
<svg id="Ebene_1" data-name="Ebene 1" xmlns="http://www.w3.org/2000/svg" version="1.1" xmlns:xlink="http://www.w3.org/1999/xlink" viewBox="0 0 467 446.4">
  <defs>
    <style>
      .cls-1 {
        fill: url(#linear-gradient);
      }

      .cls-1, .cls-2, .cls-3, .cls-4, .cls-5 {
        stroke-width: 0px;
      }

      .cls-2 {
        fill: #000;
      }

      .cls-6 {
        isolation: isolate;
      }

      .cls-3 {
        fill: url(#linear-gradient-2);
      }

      .cls-4 {
        fill: #ea0f24;
      }

      .cls-5 {
        fill: url(#linear-gradient-3);
      }
    </style>
    <linearGradient id="linear-gradient" x1="45" y1="733.5" x2="68.7" y2="733.5" gradientTransform="translate(0 -396)" gradientUnits="userSpaceOnUse">
      <stop offset="0" stop-color="#f20500"/>
      <stop offset="0" stop-color="#f20500"/>
      <stop offset="1" stop-color="#d90575"/>
    </linearGradient>
    <linearGradient id="linear-gradient-2" x1="373" y1="733.5" x2="399" y2="733.5" gradientTransform="translate(0 -396)" gradientUnits="userSpaceOnUse">
      <stop offset="0" stop-color="#f20500"/>
      <stop offset="0" stop-color="#f20500"/>
      <stop offset="1" stop-color="#d90575"/>
    </linearGradient>
    <linearGradient id="linear-gradient-3" x1="396.1" y1="735.2" x2="419.8" y2="735.2" gradientTransform="translate(0 -396)" gradientUnits="userSpaceOnUse">
      <stop offset="0" stop-color="#f20500"/>
      <stop offset="0" stop-color="#f20500"/>
      <stop offset="1" stop-color="#d90575"/>
    </linearGradient>
  </defs>
  <path class="cls-2" d="M269.2,247.5h-75c-2.6,0-4.8-2.1-4.8-4.8s2.1-4.8,4.8-4.8h75c2.6,0,4.8,2.1,4.8,4.8-.1,2.6-2.2,4.8-4.8,4.8ZM264.1,264.7h-64.6c-2.6,0-4.8-2.1-4.8-4.8s2.1-4.8,4.8-4.8h64.6c2.6,0,4.8,2.1,4.8,4.8s-2.1,4.8-4.8,4.8ZM248,281.9h-32.6c-2.6,0-4.8-2.1-4.8-4.8s2.1-4.8,4.8-4.8h32.6c2.6,0,4.8,2.1,4.8,4.8-.1,2.7-2.2,4.8-4.8,4.8Z"/>
  <path class="cls-2" d="M324.2,108.1c-2.5-17.7-9.4-33.6-20.7-47.4-16-19.4-36.4-30.7-61.4-33.7-3.3-.4-6.6-.5-9.8-.5h-3.4c-2.3.1-4.6.2-6.8.5-25,3-45.5,14.3-61.4,33.7-11.6,13.8-18.4,29.7-20.9,47.4-2.4,16.9-.5,33.2,5.8,49,5.1,12.8,12.6,23.9,22.4,33.5,3.5,3.4,7.1,6.8,9.8,10.9,4.5,6.8,7.1,14.1,7.8,22,.3,2.4,2.3,4.3,4.7,4.3h.2c.3,0,.5,0,.8-.1.2-.1.5-.1.7-.2.2-.1.5-.2.7-.3s.4-.3.6-.4c.2-.2.4-.3.5-.5.2-.2.3-.4.4-.6.1-.2.3-.4.4-.7.1-.2.2-.5.2-.7s.1-.3.1-.5v-.6c0-.3,0-.6-.1-.9,0-.3-.1-.6-.1-.9s-.1-.6-.1-.9-.1-.6-.1-.9-.1-.6-.1-.9-.1-.6-.1-.9-.1-.6-.2-.9c-.1-.3-.1-.6-.2-.9-.1-.3-.1-.6-.2-.9-.1-.3-.1-.6-.2-.9-.1-.3-.1-.6-.2-.9-.1-.3-.1-.6-.2-.9-.1-.3-.2-.6-.2-.9l-.3-.9c-.1-.3-.2-.6-.3-.8-.1-.3-.2-.6-.3-.8-.1-.3-.2-.6-.3-.8-.1-.3-.2-.6-.3-.8-.1-.3-.2-.5-.3-.8s-.2-.5-.3-.8-.2-.5-.3-.8-.2-.5-.4-.8c-.1-.3-.2-.5-.4-.8-.1-.3-.3-.5-.4-.8s-.3-.5-.4-.8c-.1-.3-.3-.5-.4-.8s-.3-.5-.4-.8c-.1-.3-.3-.5-.4-.8s-.3-.5-.5-.8-.3-.5-.5-.8-.3-.5-.5-.8-.3-.5-.5-.8c-.2-.2-.3-.5-.5-.7s-.3-.5-.5-.7-.4-.5-.5-.7c-.2-.2-.4-.5-.6-.7-.2-.2-.4-.5-.6-.7s-.4-.5-.6-.7c-.2-.2-.4-.5-.6-.7s-.4-.5-.6-.7c-.2-.2-.4-.5-.6-.7-4.3-4.8-9.3-8.9-13.4-13.9-12.8-15.8-18.7-33.9-19.2-54-.2-9.5,1.5-18.8,4.4-27.8,5.3-16.2,15-29.4,28.2-39.9,12.8-10.2,27.4-16.2,43.8-17.6,2.3-.2,4.6-.3,6.8-.3s5.1,0,7.7.3c16.5,1.4,31,7.4,43.8,17.6,13.2,10.5,22.9,23.7,28.2,39.9,2.9,9,4.7,18.3,4.4,27.8-.5,20.1-6.4,38.2-19.2,54-4.1,5-9.1,9.2-13.4,13.9-.2.2-.4.5-.6.7s-.4.5-.6.7-.4.5-.6.7-.4.5-.6.7-.4.5-.6.7-.4.5-.6.7-.4.5-.5.7c-.2.2-.4.5-.5.7-.2.2-.3.5-.5.7s-.3.5-.5.7c-.2.3-.3.5-.5.8s-.3.5-.5.8-.3.5-.5.8c-.1.3-.3.5-.4.8s-.3.5-.4.8-.3.5-.4.8-.3.5-.4.8-.3.5-.4.8-.3.5-.4.8-.2.5-.4.8c-.1.3-.2.5-.3.8s-.2.5-.3.8c-.1.3-.2.5-.3.8s-.2.6-.3.8c-.1.3-.2.6-.3.8-.1.3-.2.6-.3.8-.1.3-.2.6-.3.8l-.3.9c-.1.3-.2.6-.2.9-.1.3-.2.6-.2.9-.1.3-.1.6-.2.9-.1.3-.1.6-.2.9-.1.3-.1.6-.2.9-.1.3-.1.6-.2.9-.1.3-.1.6-.2.9,0,.3-.1.6-.1.9s-.1.6-.1.9-.1.6-.1.9-.1.6-.1.9-.1.6-.1.9-.1.6-.1.9v.6c0,.2.1.3.1.5.1.2.1.5.2.7s.2.4.4.7c.1.2.3.4.4.6.2.2.3.4.5.5.2.2.4.3.6.4.2.1.4.2.7.3.2.1.5.2.7.2.3.1.5.1.8.1h.2c2.5,0,4.5-1.9,4.7-4.3.7-7.9,3.3-15.2,7.8-22,2.7-4.1,6.3-7.5,9.8-10.9,9.9-9.6,17.4-20.7,22.4-33.5,6.9-15.7,8.8-32,6.5-48.9h0Z"/>
  <path class="cls-1" d="M45,335.2v4.5l23.7,15.9v-5.9l-18.4-12.1v-.3l18.4-12.1v-5.8s-23.7,15.8-23.7,15.8Z"/>
  <path class="cls-3" d="M393.6,310.2l-20.6,54.7h5.4l20.7-54.7h-5.5Z"/>
  <path class="cls-5" d="M396.2,321.1v5.9l18.3,12.1v.2l-18.3,12.2v5.8l23.7-15.8v-4.5l-23.7-15.9h0Z"/>
  <g class="cls-6">
    <g class="cls-6">
      <path class="cls-2" d="M117.9,355.6h-5.7c-1.9-5.6-3.2-9.3-4.1-11.1-1.1-2.3-2.3-3.8-3.7-4.4-1.1-.5-3.1-.8-5.9-.8s-3.1,0-4.4,0c0,6.3.1,11.7.4,16.3h-5.4c.3-6.1.4-12.7.4-20s-.1-12.9-.4-18.1h4.1c.9,0,2,0,3.3,0s2.9,0,4.6,0c8.6,0,12.8,2.9,12.8,8.8s-2.4,8.3-7.2,10.3v.3c2.1.6,3.9,2.1,5.2,4.5,1.1,2,3.1,6.7,5.9,14.4ZM108.9,328.1c0-4.6-3.1-7-9.4-7s-4.1.1-5.7.4c.1,3.4.2,8,.2,13.9,1.2,0,2.3,0,3.4,0,7.7,0,11.5-2.4,11.5-7.3Z"/>
      <path class="cls-2" d="M145.7,355.6l-4.6.2c-.2-1-.4-1.9-.4-2.7h-.3c-2.4,2.2-5.7,3.3-9.8,3.3s-4.2-.7-5.8-2c-1.6-1.3-2.4-3.2-2.4-5.6s1.3-5.4,3.8-7.3c2.5-1.8,7.3-2.8,14.2-2.9,0-.5,0-1,0-1.6,0-2.4-.6-4-1.9-4.8-1.3-.8-3.2-1.2-5.8-1.2s-6.1.4-9.1,1.1l.5-4c2.9-.8,6.3-1.3,10.1-1.3s6.2.7,8.1,2.2c1.9,1.4,2.8,3.9,2.8,7.3s0,2.6-.1,5-.1,4-.1,4.8c0,3.6.3,6.7.8,9.5ZM140.5,349.9c0-3-.1-5.6-.1-8-3.7,0-6.5.3-8.4.8-3.2,1-4.8,2.8-4.8,5.6s1.9,4,5.6,4,5.8-.8,7.7-2.4Z"/>
      <path class="cls-2" d="M178,355.6h-5.3c.4-5.1.6-10.7.6-16.6s-.6-5.3-1.8-6.4c-1.2-1.1-2.8-1.7-4.9-1.7s-5.7,1-8.2,3c0,10.7,0,17.9.2,21.6h-5.2c.2-5.2.3-12.4.3-21.9s-.3-14.7-.8-19.4l5.6-.3c-.2,6-.2,11.5-.2,16.6h.2c2.9-2.6,6.1-3.9,9.6-3.9s5.6.7,7.3,2.2,2.6,4,2.6,7.7,0,1.1,0,2.2c0,1.1,0,2,0,2.9,0,2.8,0,7.5.1,13.9Z"/>
      <path class="cls-2" d="M210.3,355.6l-4.5.2c-.3-1.1-.4-2-.4-2.7h-.3c-2.6,2.2-5.8,3.3-9.5,3.3s-5.8-.8-7.4-2.4c-1.5-1.6-2.3-4.9-2.3-9.9s0-1.7,0-3.1c0-1.4,0-2.3,0-2.8,0-2.9-.2-6.2-.5-10.1l5.4-.2c-.2,3.8-.4,7-.4,9.7,0,6.2.4,10.2,1.2,12s2.6,2.8,5.3,2.8,5.7-.8,7.7-2.3c0-10.9,0-18.2-.3-21.9l5.3-.2c-.2,3.7-.2,8.8-.2,15.2s.2,8.4.6,12.6Z"/>
      <path class="cls-2" d="M223.4,355.6h-5.6c.4-6.4.5-13.7.5-21.9s-.3-14.3-.8-19.4l5.9-.3c-.4,5.3-.6,11.9-.6,19.7s.2,15.3.6,21.9Z"/>
      <path class="cls-2" d="M277.3,355.6h-6.2c0-1.3-1.2-5.4-3.7-12.3h-16.9c-2.4,6.8-3.6,10.9-3.6,12.3h-5.9c0-.7,2.5-7,7.6-18.7s7.6-18.2,7.6-19.4h6.8c0,1.2,2.4,7.5,7.2,19.1s7.2,17.9,7.2,19ZM266.1,339.4c-4.6-11.5-6.9-17.6-6.9-18.3h-.3c0,.6-2.4,6.7-7.1,18.3h14.3Z"/>
      <path class="cls-2" d="M306.3,355.6h-5.3c.4-5.1.6-10.7.6-16.6s-.6-5.3-1.8-6.4c-1.2-1.1-2.8-1.7-4.9-1.7s-5.7,1-8.2,3c0,10.7,0,17.9.2,21.6h-5.2c.2-5.2.3-12.4.3-21.9s-.3-14.7-.8-19.4l5.6-.3c-.2,6-.2,11.5-.2,16.6h.2c2.9-2.6,6.1-3.9,9.6-3.9s5.6.7,7.3,2.2,2.6,4,2.6,7.7,0,1.1,0,2.2,0,2,0,2.9c0,2.8,0,7.5.1,13.9Z"/>
      <path class="cls-2" d="M338,338.4c0,.8,0,2-.1,3.4l-20.1.4c.2,2.9,1.3,5.2,3.3,7.2s4.7,2.9,8,2.9,5.8-.4,8.3-1.1l-.5,4.1c-1.9.8-4.7,1.1-8.3,1.1s-9-1.4-11.6-4.2-4-6.2-4-10.1,1.2-7.9,3.6-11,5.7-4.6,9.8-4.6,6.6,1.1,8.6,3.3,2.9,5.1,2.9,8.6ZM333.1,338.5c0-5.5-2.3-8.2-6.9-8.2s-7.5,2.9-8.3,8.6l15.2-.3Z"/>
      <path class="cls-2" d="M362.5,327.8l-1.3,4.7c-1.5-.6-2.9-.9-4.2-.9-3.7,0-6.1,1.7-7.1,5.2,0,9,0,15.3.2,18.8h-5.2c.3-6.2.5-11,.5-14.4s-.5-9.1-1.4-13.3l5.1-.7c.4,2.1.6,3.6.6,4.3h.2c2.1-3.1,4.6-4.7,7.4-4.7s3.3.3,5.3,1Z"/>
    </g>
  </g>
  <g class="cls-6">
    <g class="cls-6">
      <path class="cls-4" d="M211,115c1,.6,1.7,1,2.1,1.3.6.5,1.4,4.3,2.3,11.5l1.6,13c3.5,23.1,7.3,44.5,11.5,64.3,2.1,9.7,3.9,17.3,5.5,22.6,1.1,3.9,1.3,6.4.3,7.5-1.6,1.9-3.3,2.2-5.1.7-3.9-3.2-10.6-35.8-19.9-98-.7-4.4-1.1-10.1-1.5-17-4.6,8.7-8.4,20.1-11.5,34.4-.3,1.3-.6,2.1-.9,2.5-1.1,1.3-2.6,1.2-4.6-.4-2.2-1.8-1.4-8.2,2.5-19.2,2.7-7.8,5.5-14.6,8.5-20.6,3.7-7.3,7.8-13.8,12.4-19.5,5.1-6.4,10.1-10.1,14.9-11.1,5.4-1.1,11.1.8,17.4,5.8,5.7,4.6,8.4,13.2,7.9,25.6-.6,14.4-6.6,29.2-18.1,44.4,2.9.8,9.2,3.4,18.8,8,8.7,4.1,13.8,6.1,15.3,6.1,1.4,0,3.1-1.1,4.9-3.4.4-.5.8-.7,1.2-.6.8.7.7,2.2,0,4.5-.7,2-1.5,3.4-2.3,4.5-1.1,1.3-2.6,2.3-4.5,2.9-1.9.6-4.6,0-8-1.7l-12.8-6.5c-5-2.4-9.3-4.3-13.2-5.7-1.5-.5-3.6-.9-6.2-1.4-2.7.3-4.2.3-4.5,0-1-.8-.1-2.9,2.6-6.3,1-1.3,2.3-1.9,4-1.9,4.6-5.7,8.5-14,11.8-24.8,3.3-10.8,4.6-19.8,3.8-27-.9-8.6-3.1-14.3-6.4-17-5.5-4.4-12.1-1.9-19.7,7.5-3,3.7-6.2,8.6-9.6,14.7Z"/>
    </g>
  </g>
</svg>