<?xml version="1.0" encoding="UTF-8"?>
<svg id="Ebene_1" data-name="Ebene 1" xmlns="http://www.w3.org/2000/svg" version="1.1" xmlns:xlink="http://www.w3.org/1999/xlink" viewBox="0 0 381.5 142.1">
  <defs>
    <style>
      .cls-1 {
        fill: url(#linear-gradient);
      }

      .cls-1, .cls-2, .cls-3, .cls-4 {
        stroke-width: 0px;
      }

      .cls-5 {
        isolation: isolate;
      }

      .cls-2 {
        fill: url(#linear-gradient-2);
      }

      .cls-3 {
        fill: url(#linear-gradient-3);
      }

      .cls-4 {
        fill: #fff;
      }
    </style>
    <linearGradient id="linear-gradient" x1="3.6" y1="769.4" x2="27.3" y2="769.4" gradientTransform="translate(0 -700)" gradientUnits="userSpaceOnUse">
      <stop offset="0" stop-color="#f20500"/>
      <stop offset="0" stop-color="#f20500"/>
      <stop offset="1" stop-color="#d90575"/>
    </linearGradient>
    <linearGradient id="linear-gradient-2" x1="331.5" y1="769.3" x2="357.6" y2="769.3" gradientTransform="translate(0 -700)" gradientUnits="userSpaceOnUse">
      <stop offset="0" stop-color="#f20500"/>
      <stop offset="0" stop-color="#f20500"/>
      <stop offset="1" stop-color="#d90575"/>
    </linearGradient>
    <linearGradient id="linear-gradient-3" x1="354.7" y1="771" x2="378.4" y2="771" gradientTransform="translate(0 -700)" gradientUnits="userSpaceOnUse">
      <stop offset="0" stop-color="#f20500"/>
      <stop offset="0" stop-color="#f20500"/>
      <stop offset="1" stop-color="#d90575"/>
    </linearGradient>
  </defs>
  <path class="cls-1" d="M3.6,67.1v4.5l23.7,15.9v-5.9l-18.4-12.1v-.3l18.4-12.1v-5.8s-23.7,15.8-23.7,15.8Z"/>
  <path class="cls-2" d="M352.1,42l-20.6,54.7h5.4l20.7-54.7s-5.5,0-5.5,0Z"/>
  <path class="cls-3" d="M354.7,52.9v5.9l18.3,12.1v.2l-18.3,12.2v5.8l23.7-15.8v-4.5s-23.7-15.9-23.7-15.9Z"/>
  <g class="cls-5">
    <g class="cls-5">
      <path class="cls-4" d="M76.5,87.5h-5.7c-1.9-5.6-3.2-9.3-4.1-11.1-1.1-2.3-2.3-3.8-3.7-4.4-1.1-.5-3.1-.8-5.9-.8s-3.1,0-4.4,0c0,6.3.1,11.7.4,16.3h-5.4c.3-6.1.4-12.7.4-20s-.1-12.9-.4-18.1h4.1c.9,0,2,0,3.3,0s2.9,0,4.6,0c8.6,0,12.8,2.9,12.8,8.8s-2.4,8.3-7.2,10.3v.3c2.1.6,3.9,2.1,5.2,4.5,1.1,2,3.1,6.7,5.9,14.4ZM67.5,60c0-4.6-3.1-7-9.4-7s-4.1.1-5.7.4c.1,3.4.2,8,.2,13.9,1.2,0,2.3,0,3.4,0,7.7,0,11.5-2.4,11.5-7.3Z"/>
      <path class="cls-4" d="M104.3,87.5l-4.6.2c-.2-1-.4-1.9-.4-2.7h-.3c-2.4,2.2-5.7,3.3-9.8,3.3s-4.2-.7-5.8-2c-1.6-1.3-2.4-3.2-2.4-5.6s1.3-5.4,3.8-7.3c2.5-1.8,7.3-2.8,14.2-2.9,0-.5,0-1,0-1.6,0-2.4-.6-4-1.9-4.8-1.3-.8-3.2-1.2-5.8-1.2s-6.1.4-9.1,1.1l.5-4c2.9-.8,6.3-1.3,10.1-1.3s6.2.7,8.1,2.2c1.9,1.4,2.8,3.9,2.8,7.3s0,2.6-.1,5-.1,4-.1,4.8c0,3.6.3,6.7.8,9.5ZM99.1,81.8c0-3-.1-5.6-.1-8-3.7,0-6.5.3-8.4.8-3.2,1-4.8,2.8-4.8,5.6s1.9,4,5.6,4,5.8-.8,7.7-2.4Z"/>
      <path class="cls-4" d="M136.6,87.5h-5.3c.4-5.1.6-10.7.6-16.6s-.6-5.3-1.8-6.4c-1.2-1.1-2.8-1.7-4.9-1.7s-5.7,1-8.2,3c0,10.7,0,17.9.2,21.6h-5.2c.2-5.2.3-12.4.3-21.9s-.3-14.7-.8-19.4l5.6-.3c-.2,6-.2,11.5-.2,16.6h.2c2.9-2.6,6.1-3.9,9.6-3.9s5.6.7,7.3,2.2,2.6,4,2.6,7.7,0,1.1,0,2.2c0,1.1,0,2,0,2.9,0,2.8,0,7.5.1,13.9Z"/>
      <path class="cls-4" d="M168.9,87.5l-4.5.2c-.3-1.1-.4-2-.4-2.7h-.3c-2.6,2.2-5.8,3.3-9.5,3.3s-5.8-.8-7.4-2.4c-1.5-1.6-2.3-4.9-2.3-9.9s0-1.7,0-3.1c0-1.4,0-2.3,0-2.8,0-2.9-.2-6.2-.5-10.1l5.4-.2c-.2,3.8-.4,7-.4,9.7,0,6.2.4,10.2,1.2,12s2.6,2.8,5.3,2.8,5.7-.8,7.7-2.3c0-10.9,0-18.2-.3-21.9l5.3-.2c-.2,3.7-.2,8.8-.2,15.2s.2,8.4.6,12.6Z"/>
      <path class="cls-4" d="M182,87.5h-5.6c.4-6.4.5-13.7.5-21.9s-.3-14.3-.8-19.4l5.9-.3c-.4,5.3-.6,11.9-.6,19.7s.2,15.3.6,21.9Z"/>
      <path class="cls-4" d="M235.9,87.5h-6.2c0-1.3-1.2-5.4-3.7-12.3h-16.9c-2.4,6.8-3.6,10.9-3.6,12.3h-5.9c0-.7,2.5-7,7.6-18.7s7.6-18.2,7.6-19.4h6.8c0,1.2,2.4,7.5,7.2,19.1s7.2,17.9,7.2,19ZM224.7,71.3c-4.6-11.5-6.9-17.6-6.9-18.3h-.3c0,.6-2.4,6.7-7.1,18.3h14.3Z"/>
      <path class="cls-4" d="M264.9,87.5h-5.3c.4-5.1.6-10.7.6-16.6s-.6-5.3-1.8-6.4-2.8-1.7-4.9-1.7-5.7,1-8.2,3c0,10.7,0,17.9.2,21.6h-5.2c.2-5.2.3-12.4.3-21.9s-.3-14.7-.8-19.4l5.6-.3c-.2,6-.2,11.5-.2,16.6h.2c2.9-2.6,6.1-3.9,9.6-3.9s5.6.7,7.3,2.2,2.6,4,2.6,7.7,0,1.1,0,2.2,0,2,0,2.9c0,2.8,0,7.5.1,13.9Z"/>
      <path class="cls-4" d="M296.6,70.3c0,.8,0,2-.1,3.4l-20.1.4c.2,2.9,1.3,5.2,3.3,7.2s4.7,2.9,8,2.9,5.8-.4,8.3-1.1l-.5,4.1c-1.9.8-4.7,1.1-8.3,1.1s-9-1.4-11.6-4.2-4-6.2-4-10.1,1.2-7.9,3.6-11,5.7-4.6,9.8-4.6,6.6,1.1,8.6,3.3,2.9,5.1,2.9,8.6ZM291.7,70.4c0-5.5-2.3-8.2-6.9-8.2s-7.5,2.9-8.3,8.6l15.2-.3Z"/>
      <path class="cls-4" d="M321.1,59.7l-1.3,4.7c-1.5-.6-2.9-.9-4.2-.9-3.7,0-6.1,1.7-7.1,5.2,0,9,0,15.3.2,18.8h-5.2c.3-6.2.5-11,.5-14.4s-.5-9.1-1.4-13.3l5.1-.7c.4,2.1.6,3.6.6,4.3h.2c2.1-3.1,4.6-4.7,7.4-4.7s3.3.3,5.3,1Z"/>
    </g>
  </g>
</svg>